<svg xmlns="http://www.w3.org/2000/svg" width="28.945" height="25" viewBox="0 0 28.945 25"><path d="M11.5,4.513a2.476,2.476,0,0,0,2.647-2.257A2.476,2.476,0,0,0,11.5,0,2.476,2.476,0,0,0,8.848,2.257,2.476,2.476,0,0,0,11.5,4.513Zm5.212,7.01-1.285-.555-.535-1.382A5.982,5.982,0,0,0,9.251,6.018,13.8,13.8,0,0,0,4.1,7.2,5.026,5.026,0,0,0,1.364,9.375l-.37.639a1.413,1.413,0,0,0,.783,2.017,1.89,1.89,0,0,0,2.344-.672l.37-.639A1.673,1.673,0,0,1,5.4,10l1.478-.508-.838,2.854a2.711,2.711,0,0,0,.822,2.764l3.3,3.075a2.927,2.927,0,0,1,.822,1.3L12,22.929a1.807,1.807,0,0,0,2.14,1.1A1.508,1.508,0,0,0,15.422,22.2L14.2,18.016a2.9,2.9,0,0,0-.822-1.3l-2.509-2.337.949-3.23.3.776a3.191,3.191,0,0,0,1.748,1.74l1.285.555a1.89,1.89,0,0,0,2.344-.672,1.424,1.424,0,0,0-.789-2.022ZM4.083,18.138A2.928,2.928,0,0,1,3.3,19.149L.542,21.5a1.355,1.355,0,0,0,0,2.13,1.983,1.983,0,0,0,2.493,0l3.276-2.793a3.067,3.067,0,0,0,.783-1.011l.745-1.589c-3.05-2.835-2.134-1.965-2.614-2.525Z" transform="translate(-0.025)" fill="#fff"/><path d="M18.945,13.473A5.473,5.473,0,1,1,13.473,8,5.473,5.473,0,0,1,18.945,13.473Zm-1.059,0v-.006l-.575.5-1.383-1.291.363-1.861.757.068A4.423,4.423,0,0,0,14.825,9.27l.3.7-1.654.916-1.654-.916.3-.7A4.423,4.423,0,0,0,9.9,10.884l.763-.068.357,1.861L9.634,13.968l-.575-.5v.006a4.38,4.38,0,0,0,.849,2.6l.17-.748,1.879.231.8,1.717-.66.392a4.454,4.454,0,0,0,2.749,0l-.66-.392.8-1.717,1.879-.231.17.748A4.38,4.38,0,0,0,17.886,13.473Zm-5.475,1.535-.66-2.015,1.721-1.247,1.721,1.247-.654,2.015Z" transform="translate(10 6.055)" fill="#fff"/></svg>